<svg width="50" height="50" viewBox="0 0 600 600" fill="none" xmlns="http://www.w3.org/2000/svg">
<path d="M600 300C600 465.685 465.685 600 300 600C134.315 600 0 465.685 0 300C0 134.315 134.315 0 300 0C465.685 0 600 134.315 600 300Z" fill="#79443B"/>
<path d="M196.051 463.996H353.94C362.375 463.996 369.221 457.215 369.221 448.855C369.221 440.498 362.377 433.714 353.94 433.714H196.051C180.985 433.714 169.312 420.855 170.584 406.663V406.249C170.838 403.836 171.461 401.414 172.459 399.022C175.648 391.402 183.522 383.247 196.051 383.247H353.941C362.375 383.247 369.221 376.465 369.221 368.106V156.141C369.221 147.784 362.377 141 353.941 141H196.051C165.165 141 140.023 165.91 140.023 196.516V407.292C139.129 437.796 164.095 463.999 196.051 463.999L196.051 463.996ZM196.051 171.28H338.664V352.964H196.051C186.974 352.964 178.315 355.205 170.584 359.131V196.511C170.584 182.593 182.004 171.277 196.051 171.277V171.28Z" fill="white"/>
<path d="M201.147 267.169H308.105C316.54 267.169 323.386 260.387 323.386 252.028L323.384 201.56C323.384 193.203 316.54 186.419 308.103 186.419H201.144C192.71 186.419 185.864 193.2 185.864 201.56V252.028C185.866 260.387 192.71 267.169 201.147 267.169ZM216.425 216.701H292.825V236.888H216.425V216.701Z" fill="white"/>
<path d="M438.925 455.631L464.391 405.164C465.452 403.064 466 400.733 466 398.391V156.147C466 147.79 459.156 141.006 450.719 141.006H399.787C391.353 141.006 384.506 147.788 384.506 156.147V398.391C384.506 400.733 385.067 403.064 386.115 405.164L411.582 455.631C414.171 460.759 419.47 464 425.255 464C431.042 464 436.337 460.759 438.925 455.631ZM435.441 394.808L425.255 414.995L415.07 394.808L415.067 171.286H435.44L435.441 394.808Z" fill="white"/>
</svg>
